<svg width="83" height="26" viewBox="0 0 83 26" fill="none" xmlns="http://www.w3.org/2000/svg">
<g id="Logo">
<g id="Icon">
<path d="M16.3414 19.8588C16.4683 21.3746 15.9553 22.9344 14.8006 24.0994C13.6459 25.2644 12.0906 25.791 10.5738 25.6775C10.4469 24.1617 10.9598 22.6019 12.1145 21.4369C13.2693 20.2719 14.8245 19.7453 16.3414 19.8588Z" fill="black"/>
<path d="M13.5938 17.7525C12.08 19.3713 9.8931 20.3418 7.5055 20.2328C5.11815 20.1237 3.029 18.9582 1.66906 17.2084C3.18286 15.5895 5.36977 14.619 7.75738 14.7281C10.1447 14.8371 12.2339 16.0027 13.5938 17.7525Z" fill="black"/>
<path d="M0.779175 12.5426C1.0954 8.75186 3.00788 5.11816 6.33918 2.72464C9.67035 0.331218 13.7242 -0.321984 17.4175 0.587622C17.1013 4.37832 15.1888 8.01202 11.8575 10.4055C8.52633 12.799 4.47253 13.4522 0.779175 12.5426Z" fill="black"/>
</g>
<g id="Leafe">
<path d="M62.1855 7.89404V10.2024H63.5705V22.2702H66.0327V10.2024H69.2644V7.89404H66.0327V5.53201C66.0327 4.85485 66.0943 4.31119 66.2174 3.90076C66.3405 3.49042 66.5046 3.20318 66.7098 3.03897C66.9355 2.85435 67.2023 2.76204 67.51 2.76204C67.7562 2.76204 68.0128 2.81335 68.2795 2.91586C68.5667 2.99797 68.8129 3.21339 69.0182 3.56222L70.3723 1.53092C70.2287 1.32571 70.0236 1.13079 69.7568 0.946164C69.5106 0.761451 69.2131 0.607539 68.8643 0.484427C68.5154 0.361315 68.1153 0.299805 67.6639 0.299805C66.8022 0.299805 66.0635 0.484427 65.4479 0.853763C64.8529 1.20259 64.3912 1.73605 64.0629 2.45422C63.7347 3.17238 63.5705 4.09568 63.5705 5.22419V7.89404H62.1855Z" fill="black"/>
<path d="M23.5199 3.18803L23.5199 22.2702H34.5999V19.8079H26.136V3.18803H23.5199Z" fill="black"/>
<path fill-rule="evenodd" clip-rule="evenodd" d="M41.1615 22.5779C42.6798 22.5779 43.993 22.2804 45.1011 21.6854C46.2296 21.0699 47.1631 20.167 47.9018 18.977L45.9012 17.715C45.3883 18.5768 44.7625 19.2232 44.0238 19.654C43.2852 20.0644 42.4336 20.2696 41.4693 20.2696C40.5049 20.2696 39.6841 20.0644 39.0071 19.654C38.33 19.2437 37.8169 18.6486 37.4682 17.869C37.2031 17.2764 37.0387 16.5891 36.9751 15.8069H48.1172V15.5298C48.1377 15.3657 48.148 15.2118 48.148 15.0682C48.148 13.5703 47.8812 12.2777 47.3478 11.1902C46.8143 10.1027 46.0448 9.27172 45.0394 8.69717C44.0546 8.10221 42.8645 7.80468 41.4693 7.80468C40.0741 7.80468 38.8429 8.11241 37.7759 8.72797C36.7295 9.34353 35.9088 10.2053 35.3137 11.3133C34.7392 12.4213 34.452 13.714 34.452 15.1913C34.452 16.6481 34.7289 17.9305 35.283 19.0385C35.8575 20.1465 36.6474 21.0186 37.6528 21.6546C38.6787 22.2702 39.8483 22.5779 41.1615 22.5779ZM37.4989 12.2982C37.3023 12.7147 37.1579 13.1866 37.0655 13.714H45.4567C45.4093 13.0397 45.2394 12.4447 44.9471 11.9289C44.6188 11.3133 44.1572 10.8312 43.5621 10.4823C42.9671 10.1335 42.2695 9.95909 41.4693 9.95909C40.5254 9.95909 39.7149 10.1643 39.0379 10.5747C38.3812 10.9645 37.8683 11.539 37.4989 12.2982Z" fill="black"/>
<path fill-rule="evenodd" clip-rule="evenodd" d="M58.1707 14.5079C57.7837 14.2541 57.2913 14.0305 56.6933 13.8371C56.0163 13.5908 55.1648 13.4677 54.1388 13.4677C52.3947 13.4677 51.0303 13.8884 50.0454 14.7297C49.081 15.5503 48.5989 16.6481 48.5989 18.0229C48.5989 18.9872 48.8246 19.8079 49.2759 20.485C49.7274 21.1622 50.3224 21.6854 51.0611 22.0547C51.8203 22.4035 52.6307 22.5779 53.4925 22.5779C54.2722 22.5779 55.0519 22.4343 55.8316 22.1471C56.6318 21.8598 57.2987 21.4186 57.8321 20.8237C57.9597 20.6866 58.0725 20.5415 58.1707 20.3882V22.2702H60.6329V12.1135C60.6329 11.1902 60.3969 10.4105 59.9251 9.77447C59.4736 9.13841 58.8273 8.65617 57.9861 8.32793C57.1653 7.9791 56.2009 7.80468 55.0929 7.80468C53.7798 7.80468 52.6512 7.9996 51.7074 8.38944C50.7841 8.77928 50.0557 9.16912 49.5221 9.55896L50.7225 11.3748C50.9482 11.2107 51.256 11.0158 51.6458 10.7901C52.0357 10.5644 52.5076 10.3694 53.0616 10.2053C53.6361 10.0412 54.2722 9.95909 54.9699 9.95909C55.4007 9.95909 55.8111 10.0001 56.2009 10.0822C56.5907 10.1643 56.9294 10.2976 57.2166 10.4823C57.5243 10.667 57.7603 10.9235 57.9245 11.2517C58.0886 11.5595 58.1707 11.9597 58.1707 12.4521V14.5079ZM51.4611 16.5763C51.2149 16.9457 51.0918 17.3868 51.0918 17.8998C51.0918 18.4332 51.2149 18.8949 51.4611 19.2847C51.728 19.6745 52.087 19.9721 52.5384 20.1773C53.0103 20.3619 53.5438 20.4543 54.1388 20.4543C54.898 20.4543 55.5751 20.3004 56.1702 19.9926C56.7857 19.6848 57.2679 19.2539 57.6167 18.6999C57.9861 18.1254 58.1707 17.4688 58.1707 16.7302V16.1977C57.7764 16.0058 57.3764 15.855 56.9704 15.7453C56.2112 15.5196 55.4007 15.4067 54.5389 15.4067C53.7387 15.4067 53.0821 15.5093 52.5691 15.7145C52.0767 15.9197 51.7074 16.207 51.4611 16.5763Z" fill="black"/>
<path fill-rule="evenodd" clip-rule="evenodd" d="M79.9483 21.6854C78.8403 22.2804 77.5271 22.5779 76.0087 22.5779C74.6956 22.5779 73.526 22.2702 72.5001 21.6546C71.4947 21.0186 70.7047 20.1465 70.1302 19.0385C69.5762 17.9305 69.2993 16.6481 69.2993 15.1913C69.2993 13.714 69.5865 12.4213 70.1609 11.3133C70.756 10.2053 71.5768 9.34353 72.6232 8.72797C73.6902 8.11241 74.9213 7.80468 76.3165 7.80468C77.7118 7.80468 78.9018 8.10221 79.8867 8.69717C80.8921 9.27172 81.6616 10.1027 82.195 11.1902C82.7286 12.2777 82.9953 13.5703 82.9953 15.0682C82.9953 15.2118 82.985 15.3657 82.9645 15.5298V15.8069H71.8224C71.886 16.5891 72.0503 17.2764 72.3154 17.869C72.6643 18.6486 73.1772 19.2437 73.8543 19.654C74.5314 20.0644 75.3521 20.2696 76.3165 20.2696C77.2808 20.2696 78.1324 20.0644 78.8711 19.654C79.6098 19.2232 80.2355 18.5768 80.7485 17.715L82.7491 18.977C82.0104 20.167 81.0768 21.0699 79.9483 21.6854ZM71.9128 13.714C72.0051 13.1866 72.1496 12.7147 72.3462 12.2982C72.7155 11.539 73.2285 10.9645 73.8851 10.5747C74.5622 10.1643 75.3727 9.95909 76.3165 9.95909C77.1167 9.95909 77.8144 10.1335 78.4093 10.4823C79.0044 10.8312 79.466 11.3133 79.7944 11.9289C80.0867 12.4447 80.2566 13.0397 80.3039 13.714H71.9128Z" fill="black"/>
</g>
</g>
</svg>
