<svg xmlns="http://www.w3.org/2000/svg" width="84" height="40" viewBox="0 0 84 40" fill="none">
<g clip-path="url(#clip0_1755_3289)">
<path d="M18.1419 18.1693L12.1612 1.31207H8.82116L2.95466 17.6555C1.9555 20.4817 1.48447 20.9955 0 21.2667V21.9661H5.72376V21.2667C3.76826 20.967 3.48279 20.3389 4.32494 17.7126L5.25273 14.9007H11.6474L12.7036 18.0409C13.4744 20.3818 13.1176 20.9955 11.3048 21.2667V21.9661H20.8967V21.2667C19.4551 20.9955 18.9555 20.4531 18.1419 18.1693ZM5.56675 13.9015L8.40722 5.19452L11.3191 13.9015H5.56675Z" fill="#FD665E"/>
<path d="M26.4646 7.5925L20.1556 8.36329V9.01988L20.8836 9.24826C21.6687 9.51946 21.7971 9.71929 21.7971 10.6471V19.7252C21.7971 20.7243 21.5687 21.0384 20.1556 21.2667V21.9661H28.3202V21.2667C26.7501 21.0098 26.4932 20.7101 26.4932 19.5824V12.103C27.1212 11.5178 28.5629 11.1467 29.976 11.1467C30.7896 11.1467 31.6174 11.2751 32.0314 11.4321C32.2027 11.0896 32.3597 10.4901 32.3597 9.8763C32.3597 8.59167 31.7459 7.56396 30.4613 7.56396C29.0196 7.56396 27.8206 8.77722 26.4504 11.6177L26.4646 7.5925Z" fill="#FD665E"/>
<path d="M39.7261 22.2516C42.2953 22.2516 44.4364 21.2667 45.4926 19.7537V19.0543C44.779 19.7537 43.5371 20.2247 42.1526 20.2247C39.3121 20.2247 37.0141 17.9838 37.0141 14.0585C37.0141 10.7898 38.7269 8.70586 41.3104 8.70586C42.0812 8.70586 42.7664 8.89141 43.3088 9.23398C43.2802 9.21971 43.2659 9.21971 43.2374 9.21971C42.1383 9.21971 41.2391 10.1332 41.2391 11.2894C41.2391 12.4456 42.1669 13.3591 43.3373 13.3591C44.4792 13.3591 45.4356 12.4598 45.4356 11.2038C45.4356 9.14834 43.4801 7.50686 40.0401 7.50686C35.501 7.50686 32.161 10.5329 32.161 14.9007C32.161 19.4254 35.5153 22.2516 39.7261 22.2516Z" fill="#FD665E"/>
<path d="M52.0454 0.584106L45.7079 1.35489V2.01148L46.4359 2.25413C47.2352 2.52533 47.3494 2.72516 47.3494 3.65296V19.6966C47.3494 20.7243 47.0924 21.0241 45.7079 21.2667V21.9661H53.4728V21.2667C52.231 21.0384 52.0454 20.7814 52.0454 19.7823V10.8041C52.4736 10.0048 53.3729 9.46236 54.5433 9.46236C56.1563 9.46236 57.0983 10.4187 57.0983 12.3314V19.7823C57.0983 20.7814 56.8842 21.0526 55.671 21.2667V21.9661H63.4359V21.2667C62.0228 21.0241 61.7801 20.7243 61.7801 19.6966V12.0602C61.7801 8.97706 59.8246 7.50686 56.927 7.50686C54.5148 7.50686 52.7591 8.60594 52.0169 10.2189L52.0454 0.584106Z" fill="#FD665E"/>
<path d="M19.7792 24.7567L13.4702 25.5274V26.184L14.1982 26.4124C14.9975 26.6836 15.1117 26.8834 15.1117 27.8112V36.8608C15.1117 37.8885 14.8548 38.1882 13.4702 38.4309V39.1303H21.2351V38.4309C19.9933 38.2168 19.8077 37.9456 19.8077 36.9464V27.9683C20.236 27.1832 21.0496 26.6265 22.2057 26.6265C23.7045 26.6265 24.5609 27.5686 24.5609 29.467V36.9464C24.5609 37.9456 24.3896 38.2168 23.1478 38.4309V39.1303H30.6843V38.4309C29.4425 38.2168 29.257 37.9456 29.257 36.9464V28.9817C29.257 28.582 29.2284 28.2395 29.157 27.8969C29.5995 27.1261 30.4559 26.6265 31.6121 26.6265C33.1251 26.6265 34.0101 27.5686 34.0101 29.467V36.9464C34.0101 37.9456 33.8245 38.2025 32.5827 38.4309V39.1303H40.3476V38.4309C38.9488 38.1882 38.7062 37.8885 38.7062 36.8608V29.1958C38.7062 26.184 36.8363 24.671 33.9958 24.671C31.6121 24.671 29.7708 25.8129 29.0714 27.4258C28.5575 25.6416 26.8732 24.671 24.6323 24.671C22.2057 24.671 20.4643 25.8129 19.7792 27.4116V24.7567Z" fill="#FD665E"/>
<path d="M48.6561 39.4158C53.2522 39.4158 56.6922 36.3612 56.6922 31.9792C56.6922 27.5115 53.2808 24.671 48.7132 24.671C44.1313 24.671 40.6913 27.7113 40.6913 32.0934C40.6913 36.5753 44.1028 39.4158 48.6561 39.4158ZM48.756 38.4737C46.8433 38.4737 45.6586 36.0186 45.6586 31.9363C45.6586 27.9968 46.6863 25.6131 48.6275 25.6131C50.5259 25.6131 51.7107 28.0539 51.7107 32.1362C51.7107 36.0757 50.683 38.4737 48.756 38.4737Z" fill="#FD665E"/>
<path d="M58.0208 27.9968L62.3029 39.1588H64.8722L68.9545 28.582C69.8394 26.284 70.2391 25.8843 71.381 25.6559V24.9422H66.6136V25.6559C68.2265 25.8843 68.4121 26.341 67.7412 28.4678L65.486 35.2336L63.2307 28.4393C62.5741 26.341 62.7597 25.87 64.4154 25.6559V24.9422H55.8369V25.6559C56.9645 25.8986 57.3499 26.2982 58.0208 27.9968Z" fill="#FD665E"/>
<path d="M70.2688 32.0648C70.2688 36.6039 73.6231 39.4158 77.8767 39.4158C80.5316 39.4158 82.7012 38.4594 83.7432 36.8893L83.7289 36.1899C83.0152 36.9179 81.8162 37.446 80.4174 37.446C77.5341 37.446 75.4073 35.3478 75.0362 31.6366H83.9287C83.9573 31.3939 84.0001 31.0228 84.0001 30.6517C84.0001 27.1118 81.6307 24.671 77.6769 24.671C73.2235 24.671 70.2688 27.7256 70.2688 32.0648ZM74.9648 30.4091C74.9648 27.3402 75.9497 25.6131 77.6769 25.6131C79.1899 25.6131 79.875 27.2403 79.875 29.781C79.875 30.195 79.875 30.4947 79.8607 30.7659L74.9791 30.823C74.9648 30.6803 74.9648 30.5518 74.9648 30.4091Z" fill="#FD665E"/>
</g>
<defs>
<clipPath id="clip0_1755_3289">
<rect width="84.0001" height="38.8318" fill="white" transform="translate(0 0.584106)"/>
</clipPath>
</defs>
</svg>