<svg width="90" height="30" viewBox="0 0 90 30" fill="none" xmlns="http://www.w3.org/2000/svg">
<g id="Logo">
<g id="Icon">
<path d="M0.755005 2.70965C1.77995 3.17625 2.74753 4.15066 3.26754 5.67021C4.66762 9.76149 9.14183 12.5494 13.0191 10.4308C14.5552 9.59136 17.2055 10.4988 18.2043 13.4176C19.6044 17.5089 24.0786 20.2968 27.9559 18.1782C28.3518 17.9618 28.8218 17.8615 29.3184 17.8818V20.7924C27.8269 20.3203 26.2023 20.3917 24.6709 21.2285C23.1347 22.0679 20.4845 21.1605 19.4856 18.2416C18.0856 14.1503 13.6113 11.3625 9.73411 13.4811C8.19796 14.3205 5.54771 13.413 4.54885 10.4942C3.86899 8.50752 2.46426 6.82818 0.755005 5.86873V2.70965Z" fill="black"/>
<path d="M3.4842 0.662109C4.74329 1.64708 5.75327 3.04149 6.29796 4.63317C7.29682 7.55202 9.94707 8.45945 11.4832 7.62005C15.3605 5.50143 19.8347 8.28932 21.2347 12.3806C22.2336 15.2994 24.8839 16.2069 26.42 15.3675C27.3683 14.8493 28.3524 14.6246 29.3184 14.6408V0.662109H3.4842Z" fill="black"/>
<path d="M0.755005 10.0356V13.1211C1.62777 14.0161 2.32329 15.1249 2.74281 16.3508C3.74167 19.2697 6.39192 20.1771 7.92807 19.3377C11.8053 17.2191 16.2795 20.007 17.6796 24.0983C18.6785 27.0171 21.3287 27.9245 22.8649 27.0851C25.0448 25.894 27.4135 26.2538 29.3184 27.5243V24.2993C28.253 23.6454 27.0586 23.5737 26.2067 24.0392C22.3295 26.1578 17.8553 23.3699 16.4552 19.2787C15.4564 16.3598 12.8061 15.4524 11.27 16.2918C7.39272 18.4104 2.91851 15.6225 1.51843 11.5312C1.32123 10.955 1.05966 10.4571 0.755005 10.0356Z" fill="black"/>
<path d="M17.6191 29.2255C16.2875 28.2355 15.2162 26.7923 14.6492 25.1353C13.6503 22.2165 11.0001 21.309 9.46392 22.1484C6.28954 23.883 2.71501 22.3287 0.755005 19.4629V29.2255H17.6191Z" fill="black"/>
</g>
<g id="Dune">
<path fill-rule="evenodd" clip-rule="evenodd" d="M41.5258 6.74756C42.9862 6.74756 44.2621 6.96151 45.3534 7.38924C46.445 7.81698 47.3521 8.4069 48.075 9.15915C48.7975 9.89671 49.3361 10.7448 49.6899 11.7035C50.0587 12.6477 50.2432 13.6284 50.2432 14.6462V15.1329C50.2432 16.1065 50.0587 17.0652 49.6899 18.0093C49.3361 18.9533 48.7975 19.8088 48.075 20.5758C47.3521 21.3427 46.445 21.955 45.3534 22.4121C44.2621 22.8694 42.9862 23.0981 41.5258 23.0981H35.6848V6.74756H41.5258ZM41.7251 20.1776H38.8265V9.66806H41.7251C42.5658 9.66806 43.3106 9.78614 43.9596 10.0221C44.6234 10.2581 45.1839 10.6047 45.6412 11.062C46.0985 11.5193 46.445 12.0723 46.6809 12.7213C46.9317 13.3557 47.0572 14.0784 47.0572 14.8896C47.0572 15.6714 46.9317 16.3867 46.6809 17.0358C46.445 17.67 46.0985 18.2231 45.6412 18.6951C45.1839 19.1671 44.6234 19.5359 43.9596 19.8015C43.3106 20.0522 42.5658 20.1776 41.7251 20.1776Z" fill="black"/>
<path d="M52.5697 22.014C53.3367 22.9284 54.4136 23.3857 55.7999 23.3857H55.9328C56.8621 23.3857 57.6366 23.1792 58.2559 22.7662C58.8755 22.3532 59.34 21.741 59.6497 20.9298C59.7354 20.7056 59.8092 20.4661 59.8711 20.2115V23.0096H62.305V10.9735H59.2293V18.0756C59.2293 18.8575 59.001 19.4769 58.5437 19.9342C58.1011 20.3914 57.5259 20.62 56.8177 20.62C56.1099 20.62 55.5494 20.4062 55.1362 19.9783C54.7233 19.5359 54.5168 18.9458 54.5168 18.2084V10.9735H51.4415V17.9429C51.4415 19.7423 51.8175 21.0994 52.5697 22.014Z" fill="black"/>
<path d="M64.7312 23.0096V10.9955H67.1651V13.9567C67.2364 13.6483 67.3249 13.3619 67.4306 13.0975C67.7553 12.2716 68.2345 11.6519 68.8688 11.239C69.5178 10.826 70.3217 10.6194 71.2804 10.6194H71.413C72.844 10.6194 73.9282 11.0841 74.6657 12.0133C75.4029 12.9278 75.7717 14.2997 75.7717 16.1287V23.0096H72.6964V15.8631C72.6964 15.1256 72.4824 14.5283 72.0549 14.071C71.6417 13.6137 71.0665 13.3851 70.3289 13.3851C69.5766 13.3851 68.9645 13.6211 68.4925 14.0931C68.0352 14.5504 67.8069 15.1698 67.8069 15.9517V23.0096H64.7312Z" fill="black"/>
<path fill-rule="evenodd" clip-rule="evenodd" d="M80.6268 22.899C81.4088 23.2529 82.3159 23.4299 83.3484 23.4299C84.3365 23.4299 85.2142 23.2603 85.9811 22.921C86.7631 22.5818 87.4046 22.1025 87.906 21.4828C88.4077 20.8634 88.7468 20.1407 88.9238 19.3146H86.0919C85.9589 19.7572 85.6568 20.1333 85.1848 20.443C84.7128 20.7381 84.1006 20.8856 83.3484 20.8856C82.5961 20.8856 81.9765 20.7232 81.4898 20.3987C81.0031 20.0595 80.6415 19.6022 80.4057 19.027C80.2487 18.6351 80.1439 18.2073 80.0913 17.7438H89.1231V16.6374C89.1231 15.5755 88.9016 14.5873 88.4593 13.6727C88.0168 12.7435 87.353 11.9986 86.4678 11.4381C85.5976 10.8629 84.5135 10.5751 83.2155 10.5751C82.2274 10.5751 81.3572 10.7522 80.6049 11.1063C79.8527 11.4455 79.2183 11.9101 78.7019 12.5C78.2005 13.0754 77.817 13.7392 77.5515 14.4914C77.3006 15.2288 77.1755 15.9959 77.1755 16.7924V17.2128C77.1755 17.9798 77.3006 18.732 77.5515 19.4696C77.817 20.207 78.2005 20.8782 78.7019 21.4828C79.2183 22.0729 79.8599 22.5449 80.6268 22.899ZM80.1439 15.8631C80.203 15.5252 80.2903 15.2154 80.4057 14.9338C80.5414 14.6146 80.7094 14.3366 80.9099 14.0993C81.0797 13.898 81.273 13.7263 81.4898 13.5842C81.9618 13.2745 82.537 13.1197 83.2155 13.1197C83.8939 13.1197 84.4544 13.2672 84.897 13.5621C85.3543 13.8571 85.6937 14.2775 85.9148 14.8233C85.9705 14.9607 86.0193 15.1053 86.0609 15.2568C86.0812 15.3301 86.0997 15.4051 86.1166 15.4817C86.1438 15.6046 86.1666 15.7318 86.1851 15.8631H80.1439Z" fill="black"/>
</g>
</g>
</svg>
