<svg width="145" height="22" viewBox="0 0 145 22" fill="none" xmlns="http://www.w3.org/2000/svg">
<g id="Logo">
<g id="Nextmove">
<path d="M27.2549 19.6106V1.19531H30.6223L39.2775 14.165V1.19531H42.6448V19.6106H39.2775L30.6223 6.66729V19.6106H27.2549Z" fill="black"/>
<path d="M51.1607 19.9263C49.8453 19.9263 48.679 19.6457 47.6618 19.0845C46.6445 18.5232 45.8465 17.734 45.2678 16.7168C44.689 15.6996 44.3996 14.5245 44.3996 13.1916C44.3996 11.8411 44.6802 10.6397 45.2415 9.58743C45.8202 8.53513 46.6095 7.7196 47.6092 7.14083C48.6264 6.54452 49.819 6.24637 51.187 6.24637C52.4673 6.24637 53.5985 6.52699 54.5807 7.08821C55.5628 7.64944 56.3257 8.42113 56.8694 9.40328C57.4307 10.3679 57.7113 11.4465 57.7113 12.6391C57.7113 12.832 57.7025 13.0337 57.685 13.2442C57.685 13.4547 57.6762 13.6739 57.6587 13.9019H47.7407C47.8108 14.9191 48.1616 15.7171 48.793 16.2959C49.4419 16.8746 50.2224 17.164 51.1344 17.164C51.8184 17.164 52.3884 17.0149 52.8444 16.7168C53.3179 16.4011 53.6687 15.9977 53.8967 15.5066H57.3167C57.0711 16.3309 56.659 17.0851 56.0802 17.7691C55.519 18.4356 54.8174 18.9617 53.9756 19.3476C53.1513 19.7334 52.213 19.9263 51.1607 19.9263ZM51.187 8.98236C50.3627 8.98236 49.6348 9.21913 49.0035 9.69267C48.3721 10.1487 47.9687 10.8502 47.7933 11.7973H54.2913C54.2387 10.9379 53.923 10.2539 53.3442 9.74528C52.7654 9.23667 52.0464 8.98236 51.187 8.98236Z" fill="black"/>
<path d="M57.0924 19.6106L61.8278 13.0863L57.0924 6.56206H60.6966L64.0113 11.1922L67.2998 6.56206H70.9302L66.1685 13.0863L70.9302 19.6106H67.2998L64.0113 14.9805L60.6966 19.6106H57.0924Z" fill="black"/>
<path d="M77.5741 19.6106C76.2061 19.6106 75.11 19.2774 74.2857 18.6109C73.4614 17.9445 73.0492 16.7606 73.0492 15.0594V9.37698H70.8131V6.56206H73.0492L73.4438 3.06315H76.4166V6.56206H79.9418V9.37698H76.4166V15.0857C76.4166 15.7171 76.5481 16.1556 76.8112 16.4011C77.0918 16.6291 77.5653 16.7431 78.2318 16.7431H79.8629V19.6106H77.5741Z" fill="black"/>
<path d="M81.5176 19.6106V6.56206H84.4903L84.7797 8.32467C85.2007 7.69329 85.7531 7.19344 86.4371 6.82514C87.1386 6.43929 87.9454 6.24637 88.8574 6.24637C90.8743 6.24637 92.3037 7.02683 93.1455 8.58775C93.6191 7.86867 94.2505 7.29868 95.0397 6.87775C95.8465 6.45683 96.7234 6.24637 97.6705 6.24637C99.3717 6.24637 100.678 6.75498 101.59 7.77221C102.502 8.78944 102.958 10.2802 102.958 12.2445V19.6106H99.5909V12.5602C99.5909 11.4377 99.3717 10.5784 98.9332 9.98205C98.5123 9.38574 97.8546 9.08759 96.9602 9.08759C96.0482 9.08759 95.3115 9.42082 94.7503 10.0873C94.2066 10.7537 93.9348 11.6833 93.9348 12.8759V19.6106H90.5674V12.5602C90.5674 11.4377 90.3482 10.5784 89.9097 9.98205C89.4713 9.38574 88.796 9.08759 87.884 9.08759C86.9896 9.08759 86.2617 9.42082 85.7005 10.0873C85.1568 10.7537 84.885 11.6833 84.885 12.8759V19.6106H81.5176Z" fill="black"/>
<path d="M111.101 19.9263C109.838 19.9263 108.698 19.6369 107.681 19.0582C106.681 18.4794 105.883 17.6814 105.287 16.6642C104.708 15.6294 104.419 14.4368 104.419 13.0863C104.419 11.7359 104.717 10.552 105.313 9.53482C105.91 8.50005 106.708 7.69329 107.707 7.11452C108.725 6.53576 109.865 6.24637 111.127 6.24637C112.373 6.24637 113.495 6.53576 114.495 7.11452C115.512 7.69329 116.31 8.50005 116.889 9.53482C117.485 10.552 117.783 11.7359 117.783 13.0863C117.783 14.4368 117.485 15.6294 116.889 16.6642C116.31 17.6814 115.512 18.4794 114.495 19.0582C113.478 19.6369 112.346 19.9263 111.101 19.9263ZM111.101 17.0062C111.978 17.0062 112.741 16.6817 113.39 16.0328C114.039 15.3663 114.363 14.3842 114.363 13.0863C114.363 11.7885 114.039 10.8151 113.39 10.1662C112.741 9.49974 111.987 9.16651 111.127 9.16651C110.233 9.16651 109.461 9.49974 108.812 10.1662C108.181 10.8151 107.865 11.7885 107.865 13.0863C107.865 14.3842 108.181 15.3663 108.812 16.0328C109.461 16.6817 110.224 17.0062 111.101 17.0062Z" fill="black"/>
<path d="M122.362 19.6106L117.574 6.56206H121.099L124.414 16.4274L127.728 6.56206H131.254L126.439 19.6106H122.362Z" fill="black"/>
<path d="M137.76 19.9263C136.445 19.9263 135.278 19.6457 134.261 19.0845C133.244 18.5232 132.446 17.734 131.867 16.7168C131.288 15.6996 130.999 14.5245 130.999 13.1916C130.999 11.8411 131.28 10.6397 131.841 9.58743C132.42 8.53513 133.209 7.7196 134.208 7.14083C135.226 6.54452 136.418 6.24637 137.786 6.24637C139.067 6.24637 140.198 6.52699 141.18 7.08821C142.162 7.64944 142.925 8.42113 143.469 9.40328C144.03 10.3679 144.311 11.4465 144.311 12.6391C144.311 12.832 144.302 13.0337 144.284 13.2442C144.284 13.4547 144.275 13.6739 144.258 13.9019H134.34C134.41 14.9191 134.761 15.7171 135.392 16.2959C136.041 16.8746 136.822 17.164 137.734 17.164C138.418 17.164 138.988 17.0149 139.444 16.7168C139.917 16.4011 140.268 15.9977 140.496 15.5066H143.916C143.67 16.3309 143.258 17.0851 142.679 17.7691C142.118 18.4356 141.417 18.9617 140.575 19.3476C139.751 19.7334 138.812 19.9263 137.76 19.9263ZM137.786 8.98236C136.962 8.98236 136.234 9.21913 135.603 9.69267C134.971 10.1487 134.568 10.8502 134.393 11.7973H140.891C140.838 10.9379 140.522 10.2539 139.943 9.74528C139.365 9.23667 138.646 8.98236 137.786 8.98236Z" fill="black"/>
</g>
<g id="Icon">
<path d="M10.6504 0.837385V9.16227C10.6504 10.1124 9.88015 10.8827 8.92997 10.8827L0.605086 10.8827L0.605086 7.44183H4.77181L0.393921 3.06393L2.827 0.630859L7.20953 5.01339L7.20953 0.837385L10.6504 0.837385Z" fill="black"/>
<path d="M20.8134 11.0007H12.4885C11.5383 11.0007 10.768 11.771 10.768 12.7211V21.046L14.2089 21.046L14.2089 16.8789L18.5871 21.2571L21.0202 18.8241L16.6377 14.4416H20.8134V11.0007Z" fill="black"/>
</g>
</g>
</svg>
