<svg width="124" height="32" viewBox="0 0 124 32" fill="none" xmlns="http://www.w3.org/2000/svg">
<g id="Logo">
<g id="Icon">
<path id="Subtract" fill-rule="evenodd" clip-rule="evenodd" d="M30.9257 14.7512C31.5316 17.6413 31.2513 20.3296 30.2722 22.5714L30.3241 22.5706C29.4847 24.8679 26.6926 29.6745 20.1188 31.0529C19.8687 31.1053 19.6189 31.1469 19.3697 31.1781C18.7426 31.2703 18.092 31.318 17.4205 31.318C9.63524 31.318 1.9806 24.9094 0.323332 17.0041C-0.466074 13.2386 0.247651 9.81263 2.05302 7.25714C2.89159 5.64294 7.29104 1.72814 10.8414 0.967431C10.9378 0.946756 11.0306 0.930568 11.1198 0.918686C12.0578 0.690354 13.0583 0.569824 14.1115 0.569824C21.7558 0.569824 29.2838 6.91902 30.9257 14.7512ZM28.2496 14.0882C29.5386 20.2368 25.7165 25.2212 19.7127 25.2212C13.7088 25.2212 7.79683 20.2368 6.50784 14.0882C5.21886 7.93957 9.04099 2.95515 15.0448 2.95515C21.0486 2.95515 26.9606 7.93957 28.2496 14.0882ZM19.3462 21.7754C23.79 21.7754 26.6374 18.174 25.7061 13.7313C24.7747 9.28868 20.4173 5.68721 15.9734 5.68721C11.5296 5.68721 8.68215 9.28868 9.61351 13.7313C10.5449 18.174 14.9023 21.7754 19.3462 21.7754ZM23.3047 13.3979C23.889 16.1848 22.0542 18.4441 19.2067 18.4441C16.3591 18.4441 13.5771 16.1848 12.9928 13.3979C12.4086 10.6109 14.2433 8.3516 17.0909 8.3516C19.9384 8.3516 22.7205 10.6109 23.3047 13.3979ZM20.6938 13.3982C20.9821 14.7736 20.0766 15.8887 18.6712 15.8887C17.2658 15.8887 15.8928 14.7736 15.6044 13.3982C15.3161 12.0227 16.2216 10.9076 17.627 10.9076C19.0324 10.9076 20.4054 12.0227 20.6938 13.3982Z" fill="black"/>
</g>
<g id="Union">
<path d="M51.5249 22.9903C51.5249 23.1672 51.6683 23.3106 51.8452 23.3106H54.28C54.4569 23.3106 54.6003 23.1672 54.6003 22.9903V11.2966H51.8452C51.6683 11.2966 51.5249 11.44 51.5249 11.6169V22.9903Z" fill="black"/>
<path d="M51.624 9.39385C51.919 9.7036 52.3688 9.85848 52.9736 9.85848C53.5784 9.85848 54.0209 9.7036 54.3011 9.39385C54.5814 9.06935 54.7215 8.67109 54.7215 8.19909C54.7215 7.69759 54.5814 7.29196 54.3011 6.98221C54.0209 6.67245 53.5784 6.51758 52.9736 6.51758C52.3688 6.51758 51.919 6.67245 51.624 6.98221C51.3437 7.29196 51.2036 7.69759 51.2036 8.19909C51.2036 8.67109 51.3437 9.06935 51.624 9.39385Z" fill="black"/>
<path fill-rule="evenodd" clip-rule="evenodd" d="M46.6771 17.6908C45.7331 18.1333 44.5826 18.3545 43.2256 18.3545H40.7918V22.9903C40.7918 23.1672 40.6484 23.3106 40.4715 23.3106H37.9703C37.7934 23.3106 37.65 23.1672 37.65 22.9903V7.36888C37.65 7.19198 37.7934 7.04858 37.9703 7.04858H40.4715C40.5061 7.04858 40.5394 7.05406 40.5705 7.06419C40.6017 7.05406 40.635 7.04858 40.6696 7.04858H43.2256C44.5826 7.04858 45.7331 7.26983 46.6771 7.71234C47.6358 8.15484 48.366 8.7891 48.8675 9.6151C49.369 10.4264 49.6197 11.3925 49.6197 12.5135V12.8675C49.6197 13.9885 49.369 14.962 48.8675 15.788C48.366 16.5993 47.6358 17.2335 46.6771 17.6908ZM45.0841 10.1461C44.6563 9.89535 44.1253 9.76998 43.4911 9.76998H40.7918V15.6331H43.4911C44.1253 15.6331 44.6563 15.5078 45.0841 15.257C45.5266 15.0063 45.8585 14.6596 46.0797 14.2171C46.3157 13.7746 46.4337 13.2658 46.4337 12.6905C46.4337 12.1152 46.3157 11.6064 46.0797 11.1639C45.8585 10.7214 45.5266 10.3821 45.0841 10.1461Z" fill="black"/>
<path d="M57.3587 23.3106C57.1818 23.3106 57.0384 23.1672 57.0384 22.9903V11.6169C57.0384 11.44 57.1818 11.2966 57.3587 11.2966H59.1519C59.3288 11.2966 59.4722 11.44 59.4722 11.6169V14.2572C59.5435 13.949 59.632 13.6628 59.7377 13.3985C60.0622 12.5725 60.5416 11.953 61.1758 11.54C61.8248 11.127 62.6287 10.9205 63.5875 10.9205H63.7202C65.151 10.9205 66.2351 11.3851 66.9726 12.3144C67.7101 13.2289 68.0789 14.6006 68.0789 16.4297V22.9903C68.0789 23.1672 67.9355 23.3106 67.7586 23.3106H65.3238C65.1469 23.3106 65.0035 23.1672 65.0035 22.9903V16.1642C65.0035 15.4266 64.7896 14.8293 64.3618 14.372C63.9488 13.9148 63.3736 13.6861 62.6361 13.6861C61.8838 13.6861 61.2717 13.9221 60.7997 14.3941C60.3424 14.8514 60.1138 15.4709 60.1138 16.2527V22.9903C60.1138 23.1672 59.9704 23.3106 59.7935 23.3106H57.3587Z" fill="black"/>
<path fill-rule="evenodd" clip-rule="evenodd" d="M79.5494 17.6908C78.6054 18.1333 77.4549 18.3545 76.0979 18.3545H73.6641V22.9903C73.6641 23.1672 73.5207 23.3106 73.3438 23.3106H70.8426C70.6657 23.3106 70.5223 23.1672 70.5223 22.9903V7.36888C70.5223 7.19198 70.6657 7.04858 70.8426 7.04858H73.3438C73.3784 7.04858 73.4116 7.05406 73.4428 7.06419C73.474 7.05406 73.5073 7.04858 73.5419 7.04858H76.0979C77.4549 7.04858 78.6054 7.26983 79.5494 7.71234C80.5081 8.15484 81.2383 8.7891 81.7398 9.6151C82.2413 10.4264 82.492 11.3925 82.492 12.5135V12.8675C82.492 13.9885 82.2413 14.962 81.7398 15.788C81.2383 16.5993 80.5081 17.2335 79.5494 17.6908ZM77.9564 10.1461C77.5286 9.89535 76.9976 9.76998 76.3634 9.76998H73.6641V15.6331H76.3634C76.9976 15.6331 77.5286 15.5078 77.9564 15.257C78.3989 15.0063 78.7307 14.6596 78.952 14.2171C79.188 13.7746 79.306 13.2658 79.306 12.6905C79.306 12.1152 79.188 11.6064 78.952 11.1639C78.7307 10.7214 78.3989 10.3821 77.9564 10.1461Z" fill="black"/>
<path fill-rule="evenodd" clip-rule="evenodd" d="M89.3373 23.731C88.2753 23.731 87.3387 23.5613 86.5274 23.2221C85.7162 22.8828 85.0303 22.4256 84.4698 21.8503C83.9093 21.2603 83.4815 20.5966 83.1865 19.8591C82.9063 19.1215 82.7662 18.3545 82.7662 17.558V17.0934C82.7662 16.2674 82.9137 15.4856 83.2087 14.7481C83.5184 13.9959 83.9535 13.3321 84.5141 12.7569C85.0893 12.1669 85.7826 11.7096 86.5938 11.3851C87.4051 11.0459 88.3196 10.8762 89.3373 10.8762C90.3551 10.8762 91.2696 11.0459 92.0809 11.3851C92.8921 11.7096 93.578 12.1669 94.1385 12.7569C94.7138 13.3321 95.1489 13.9959 95.4439 14.7481C95.7389 15.4856 95.8864 16.2674 95.8864 17.0934V17.558C95.8864 18.3545 95.7389 19.1215 95.4439 19.8591C95.1636 20.5966 94.7433 21.2603 94.1827 21.8503C93.6222 22.4256 92.9364 22.8828 92.1251 23.2221C91.3139 23.5613 90.3846 23.731 89.3373 23.731ZM89.3373 21.0981C90.0896 21.0981 90.7239 20.9358 91.2401 20.6113C91.7564 20.2721 92.1472 19.8222 92.4127 19.2617C92.6782 18.6864 92.811 18.0374 92.811 17.3147C92.811 16.5772 92.6709 15.9281 92.3906 15.3676C92.1251 14.7924 91.7269 14.3425 91.1959 14.018C90.6796 13.6788 90.0601 13.5091 89.3373 13.5091C88.6146 13.5091 87.9877 13.6788 87.4567 14.018C86.9404 14.3425 86.5422 14.7924 86.2619 15.3676C85.9817 15.9281 85.8416 16.5772 85.8416 17.3147C85.8416 18.0374 85.9743 18.6864 86.2398 19.2617C86.5201 19.8222 86.9183 20.2721 87.4346 20.6113C87.9508 20.9358 88.5851 21.0981 89.3373 21.0981Z" fill="black"/>
<path d="M98.0483 22.9903C98.0483 23.1672 98.1917 23.3106 98.3685 23.3106H100.803C100.98 23.3106 101.124 23.1672 101.124 22.9903V11.2966H98.3685C98.1917 11.2966 98.0483 11.44 98.0483 11.6169V22.9903Z" fill="black"/>
<path d="M98.1473 9.39385C98.4423 9.7036 98.8922 9.85848 99.4969 9.85848C100.102 9.85848 100.544 9.7036 100.824 9.39385C101.105 9.06935 101.245 8.67109 101.245 8.19909C101.245 7.69759 101.105 7.29196 100.824 6.98221C100.544 6.67245 100.102 6.51758 99.4969 6.51758C98.8922 6.51758 98.4423 6.67245 98.1473 6.98221C97.867 7.29196 97.7269 7.69759 97.7269 8.19909C97.7269 8.67109 97.867 9.06935 98.1473 9.39385Z" fill="black"/>
<path d="M103.882 23.3106C103.705 23.3106 103.562 23.1672 103.562 22.9903V11.6169C103.562 11.44 103.705 11.2966 103.882 11.2966H105.675C105.852 11.2966 105.996 11.44 105.996 11.6169V14.2572C106.067 13.949 106.155 13.6628 106.261 13.3985C106.586 12.5725 107.065 11.953 107.699 11.54C108.348 11.127 109.152 10.9205 110.111 10.9205H110.244C111.674 10.9205 112.758 11.3851 113.496 12.3144C114.233 13.2289 114.602 14.6006 114.602 16.4297V22.9903C114.602 23.1672 114.459 23.3106 114.282 23.3106H111.847C111.67 23.3106 111.527 23.1672 111.527 22.9903V16.1642C111.527 15.4266 111.313 14.8293 110.885 14.372C110.472 13.9148 109.897 13.6861 109.159 13.6861C108.407 13.6861 107.795 13.9221 107.323 14.3941C106.866 14.8514 106.637 15.4709 106.637 16.2527V22.9903C106.637 23.1672 106.494 23.3106 106.317 23.3106H103.882Z" fill="black"/>
<path d="M119.28 23.0451C120.003 23.3253 120.918 23.4655 122.024 23.4655H123.429C123.606 23.4655 123.75 23.3221 123.75 23.1452V21.1529C123.75 20.976 123.606 20.8326 123.429 20.8326H121.869C121.279 20.8326 120.822 20.6777 120.497 20.3679C120.187 20.0434 120.033 19.5862 120.033 18.9962L120.043 13.5534H123.429C123.606 13.5534 123.75 13.41 123.75 13.2331V11.6169C123.75 11.44 123.606 11.2966 123.429 11.2966H120.048L120.054 8.2324C120.054 8.05525 119.911 7.91146 119.734 7.91146H117.498C117.321 7.91146 117.178 8.05447 117.178 8.23111L117.172 11.2966H115.574C115.397 11.2966 115.254 11.44 115.254 11.6169V13.2331C115.254 13.41 115.397 13.5534 115.574 13.5534H117.167L117.156 18.797C117.156 19.9623 117.333 20.8916 117.687 21.5848C118.041 22.2633 118.572 22.7501 119.28 23.0451Z" fill="black"/>
</g>
</g>
</svg>
