<svg width="93" height="27" viewBox="0 0 93 27" fill="none" xmlns="http://www.w3.org/2000/svg">
<g id="Logo">
<g id="Terra">
<path d="M30.8824 5.88098V2.7207H46.7826V5.88098H40.6451V24.5872H37.0835V5.88098H30.8824Z" fill="black"/>
<path d="M56.5219 21.7143L57.4123 21.6185L57.4759 24.2042C55.0591 24.6937 52.9179 24.9384 51.0523 24.9384C48.699 24.9384 47.003 24.2893 45.9642 22.9912C44.9466 21.693 44.4378 19.6181 44.4378 16.7664C44.4378 11.1055 46.738 8.27513 51.3385 8.27513C55.7905 8.27513 58.0165 10.7118 58.0165 15.5853L57.7939 18.0752H47.9358C47.957 19.3946 48.2432 20.3629 48.7944 20.9801C49.3456 21.5972 50.3739 21.9058 51.8791 21.9058C53.3843 21.9058 54.9319 21.842 56.5219 21.7143ZM54.6139 15.3937C54.6139 13.8189 54.3595 12.7229 53.8507 12.1058C53.3631 11.4673 52.5257 11.1481 51.3385 11.1481C50.1512 11.1481 49.282 11.478 48.7308 12.1377C48.2008 12.7974 47.9252 13.8827 47.904 15.3937H54.6139Z" fill="black"/>
<path d="M59.7596 24.5872V8.62627H63.194V10.5416C64.996 9.37111 66.798 8.61563 68.6 8.27513V11.7546C66.7768 12.1164 65.2186 12.5846 63.9254 13.1592L63.2258 13.4465V24.5872H59.7596Z" fill="black"/>
<path d="M69.6599 24.5872V8.62627H73.0943V10.5416C74.8963 9.37111 76.6983 8.61563 78.5003 8.27513V11.7546C76.6771 12.1164 75.1189 12.5846 73.8257 13.1592L73.1261 13.4465V24.5872H69.6599Z" fill="black"/>
<path d="M91.3263 13.5423V20.8205C91.3475 21.2886 91.4641 21.6398 91.6761 21.8739C91.9093 22.0867 92.2591 22.225 92.7255 22.2889L92.6301 24.9384C90.8069 24.9384 89.3971 24.5447 88.4007 23.7573C86.7047 24.5447 84.998 24.9384 83.2808 24.9384C80.122 24.9384 78.5426 23.2465 78.5426 19.8628C78.5426 18.2454 78.9666 17.0749 79.8146 16.3514C80.6838 15.6278 82.0088 15.1915 83.7896 15.0426L87.8919 14.6914V13.5423C87.8919 12.691 87.7011 12.0951 87.3195 11.7546C86.959 11.4141 86.4184 11.2439 85.6976 11.2439C84.3408 11.2439 82.6448 11.329 80.6096 11.4992L79.592 11.5631L79.4648 9.1051C81.7756 8.55178 83.8956 8.27513 85.8248 8.27513C87.7753 8.27513 89.1745 8.70075 90.0225 9.552C90.8917 10.382 91.3263 11.7121 91.3263 13.5423ZM84.203 17.5006C82.7402 17.6283 82.0088 18.4263 82.0088 19.8947C82.0088 21.3631 82.6554 22.0973 83.9486 22.0973C85.0086 22.0973 86.1322 21.9271 87.3195 21.5866L87.8919 21.3951V17.1494L84.203 17.5006Z" fill="black"/>
</g>
<g id="Icon">
<path id="Icon_2" fill-rule="evenodd" clip-rule="evenodd" d="M21.2624 0.888184C24.0296 0.888184 26.3383 2.85102 26.8722 5.46036C26.9485 5.83312 26.9886 6.21908 26.9886 6.61439V21.2735C26.9886 24.436 24.4249 26.9997 21.2624 26.9997H6.60328C5.9772 26.9997 5.37458 26.8992 4.81067 26.7135C2.52618 25.9611 0.877075 23.8099 0.877075 21.2735V6.61439C0.877075 3.45189 3.44079 0.888184 6.60328 0.888184H21.2624ZM18.9399 2.72057H21.2624C23.1601 2.72057 24.7407 4.07813 25.0861 5.87507C23.984 5.99993 22.7243 5.88422 21.3941 5.31414C20.2153 4.80893 19.4334 3.87292 18.9399 2.72057ZM13.503 2.72057H16.9833C17.5615 4.46123 18.6693 6.13993 20.6723 6.99837C22.2791 7.68698 23.805 7.84671 25.1562 7.71253V9.58484C23.3217 10.1656 21.4936 10.4006 20.0309 9.97248C19.3044 9.75985 18.4707 9.19526 17.5736 8.30711C16.6888 7.43111 15.8058 6.30444 14.972 5.0729C14.4539 4.30757 13.9605 3.51034 13.503 2.72057ZM11.3985 2.72057H8.97377C9.08427 4.79407 8.59572 7.32677 6.77831 9.89253C5.57423 11.5924 4.15038 12.5274 2.70946 12.9449V16.5979C3.5777 16.0706 4.59984 15.3505 5.79655 14.3782C8.62413 12.0807 10.8512 11.1666 12.5399 10.9995C14.2189 10.8332 15.4124 11.4156 15.9382 12.1517C16.4901 12.9244 16.8021 13.9599 16.9196 15.0521C17.0384 16.1575 16.966 17.3904 16.6872 18.614C16.133 21.0464 14.726 23.5785 12.1913 24.9433C12.0533 25.0176 11.914 25.0923 11.7736 25.1673H14.6218C15.7357 23.7532 16.6271 22.3482 16.9467 21.2471C17.3076 20.0042 17.4557 18.6865 17.5942 17.4545L17.5942 17.4543L17.5943 17.454C17.644 17.0115 17.6925 16.58 17.7492 16.1671C17.8474 15.4515 17.983 14.6933 18.2742 14.1466C18.4283 13.8573 18.6731 13.5352 19.0672 13.3493C19.482 13.1536 19.9137 13.1776 20.2923 13.3038C21.3536 13.6576 22.7646 13.7309 25.1562 13.1318V11.4974C23.312 12.017 21.301 12.2535 19.5162 11.7311C18.3645 11.394 17.2712 10.5862 16.2844 9.6093C15.2854 8.62022 14.3273 7.38913 13.4547 6.10018C12.7083 4.99764 12.0134 3.83648 11.3985 2.72057ZM25.1562 15.0164C22.8778 15.5379 21.2394 15.5161 19.8538 15.0874C19.7513 15.3272 19.6557 15.7524 19.5646 16.4163C19.5193 16.746 19.4773 17.121 19.4319 17.5264L19.4318 17.5267C19.2902 18.7902 19.1154 20.3493 18.7065 21.758C18.393 22.8377 17.7151 24.0238 16.9092 25.1673H18.7527C19.0927 24.3217 19.4059 23.5164 19.6519 22.8395C19.9161 22.1121 20.0817 21.589 20.1349 21.3228C20.2361 20.8172 20.4287 20.2733 20.8805 19.8876C21.3504 19.4865 21.9277 19.4004 22.4685 19.4279C23.001 19.455 23.6254 19.5984 24.3298 19.8004C24.5859 19.8739 24.8612 19.9577 25.1562 20.0508V15.0164ZM25.0966 21.9559C24.6183 21.8005 24.1975 21.6687 23.8246 21.5618C23.144 21.3666 22.6875 21.2738 22.3754 21.2579C22.1739 21.2477 22.0923 21.2725 22.0689 21.2829C22.0558 21.2984 21.9907 21.3871 21.9317 21.6821C21.8476 22.1031 21.6343 22.7491 21.3741 23.4652C21.1873 23.9793 20.9654 24.5588 20.7252 25.1673H21.2624C23.1801 25.1673 24.774 23.781 25.0966 21.9559ZM7.81993 25.1673C9.01991 24.5485 10.2311 23.9177 11.3226 23.33C13.2543 22.2898 14.4241 20.2981 14.9006 18.2069C15.1372 17.1686 15.1936 16.1397 15.0977 15.248C15.0004 14.3432 14.7541 13.6466 14.4471 13.2168C14.4003 13.1512 13.9332 12.7029 12.7204 12.8229C11.5174 12.942 9.62161 13.6313 6.95203 15.8003C5.28093 17.1581 3.88245 18.0884 2.70946 18.7034V20.7699C2.99862 20.5053 3.32514 20.2843 3.62687 20.0957C3.93429 19.9036 4.26925 19.7146 4.59843 19.53L4.68001 19.4843C4.98752 19.3119 5.29272 19.1408 5.59579 18.9593C6.25879 18.5622 6.85493 18.1475 7.31332 17.6649C8.10698 16.8294 9.2525 15.8321 10.3295 15.1514C10.8608 14.8155 11.4346 14.5185 11.9759 14.3821C12.484 14.2541 13.2718 14.202 13.8208 14.8296C14.3432 15.4267 14.5597 16.3224 14.1791 17.4849C13.8177 18.5889 12.91 19.9831 11.1555 21.7961C9.33429 23.678 7.51299 24.6208 5.97748 24.9212C5.8043 24.9551 5.63394 24.9809 5.467 24.9989C5.82648 25.1084 6.208 25.1673 6.60328 25.1673H7.81993ZM2.70946 11.0061C3.59724 10.6379 4.48169 9.9647 5.28304 8.83338C6.86536 6.59952 7.24771 4.43342 7.13883 2.72057H6.60328C4.45279 2.72057 2.70946 4.46389 2.70946 6.61439V11.0061ZM22.0672 21.2838C22.0628 21.2858 22.0611 21.2871 22.0613 21.2873C22.0614 21.2874 22.0624 21.287 22.0641 21.2859L22.0652 21.2852L22.0672 21.2838ZM11.3085 16.7003C10.3858 17.2835 9.35523 18.1759 8.64187 18.9269C8.01241 19.5895 7.24863 20.1053 6.53733 20.5313C6.21044 20.7271 5.88267 20.9108 5.57884 21.0811L5.49469 21.1282C5.16175 21.3149 4.86323 21.4838 4.59799 21.6496C4.02607 22.007 3.78697 22.2473 3.71204 22.4011C3.69055 22.4453 3.688 22.4705 3.69462 22.5091C3.70404 22.5639 3.74349 22.6905 3.9004 22.8997L3.91565 22.9201L3.92977 22.9412C3.93065 22.9424 3.95128 22.9709 4.01685 23.011C4.08457 23.0524 4.18942 23.0993 4.33833 23.136C4.63757 23.2096 5.07318 23.231 5.62566 23.1229C6.72427 22.908 8.22425 22.1902 9.83875 20.5218C11.52 18.7846 12.2038 17.6294 12.4377 16.9148C12.5769 16.4894 12.5484 16.259 12.5039 16.1412C12.4816 16.1453 12.455 16.1511 12.4236 16.159C12.159 16.2256 11.777 16.4041 11.3085 16.7003ZM12.6025 16.1326C12.6021 16.1331 12.5966 16.1331 12.5873 16.1313C12.5982 16.1312 12.6029 16.1321 12.6025 16.1326Z" fill="black"/>
</g>
</g>
</svg>
