<svg xmlns="http://www.w3.org/2000/svg" width="104" height="24" viewBox="0 0 104 24" fill="none">
  <path d="M35.8858 22.3439C33.5059 22.3439 31.6497 21.6855 30.3169 20.3687C29.0001 19.0518 28.3417 17.1717 28.3417 14.7284V5.39941H32.197V14.5856C32.197 17.5684 33.4345 19.0597 35.9096 19.0597C37.1154 19.0597 38.0356 18.7028 38.6702 17.9888C39.3048 17.259 39.6222 16.1246 39.6222 14.5856V5.39941H43.4299V14.7284C43.4299 17.1717 42.7635 19.0518 41.4308 20.3687C40.114 21.6855 38.2656 22.3439 35.8858 22.3439Z" fill="black"/>
  <path d="M45.312 13.8717H52.047V16.8465H45.312V13.8717Z" fill="black"/>
  <path d="M56.6308 8.54081H51.2999V5.39941H65.817V8.54081H60.4862V22.0583H56.6308V8.54081Z" fill="black"/>
  <path d="M79.0596 9.25477V22.0583H75.5374V20.5352C75.0456 21.0905 74.4585 21.5189 73.7763 21.8204C73.0941 22.1059 72.3563 22.2487 71.563 22.2487C69.8813 22.2487 68.5486 21.7648 67.5649 20.797C66.5812 19.8292 66.0894 18.3934 66.0894 16.4895V9.25477H69.802V15.9421C69.802 18.0047 70.6666 19.0359 72.396 19.0359C73.2845 19.0359 73.9984 18.7504 74.5379 18.1792C75.0773 17.5922 75.347 16.7275 75.347 15.5852V9.25477H79.0596Z" fill="black"/>
  <path d="M84.855 10.9445C85.2993 10.3257 85.8942 9.85766 86.6399 9.54035C87.4015 9.22304 88.2741 9.06438 89.2578 9.06438V12.4914C88.8453 12.4596 88.5676 12.4438 88.4248 12.4438C87.3618 12.4438 86.5289 12.7452 85.926 13.3481C85.3231 13.9351 85.0216 14.8236 85.0216 16.0135V22.0583H81.3091V9.25477H84.855V10.9445Z" fill="black"/>
  <path d="M98.0574 9.06438C99.644 9.06438 100.921 9.54035 101.889 10.4923C102.873 11.4442 103.364 12.8563 103.364 14.7284V22.0583H99.6519V15.2996C99.6519 14.2842 99.4298 13.5306 98.9856 13.0387C98.5413 12.531 97.8988 12.2772 97.0579 12.2772C96.1218 12.2772 95.3761 12.5707 94.8208 13.1577C94.2655 13.7289 93.9879 14.5856 93.9879 15.728V22.0583H90.2753V9.25477H93.8213V10.7541C94.3131 10.2146 94.924 9.80213 95.6538 9.51655C96.3836 9.2151 97.1848 9.06438 98.0574 9.06438Z" fill="black"/>
  <path fill-rule="evenodd" clip-rule="evenodd" d="M11.756 1.07005C12.3891 0.436935 13.4156 0.436935 14.0488 1.07005L19.9776 6.99891L14.0218 12.684C13.3741 13.3022 12.3479 13.2784 11.7297 12.6307C11.1115 11.983 11.1353 10.9568 11.783 10.3386L13.6116 8.59315H9.65998C6.49636 8.59315 3.93174 11.1578 3.93174 14.3214C3.93174 17.485 6.49636 20.0496 9.65998 20.0496H17.6579C18.5533 20.0496 19.2791 20.7755 19.2791 21.6708C19.2791 22.5662 18.5533 23.292 17.6579 23.292H9.65998C4.70563 23.292 0.689331 19.2757 0.689331 14.3214C0.689331 9.36704 4.70563 5.35074 9.65998 5.35074H13.744L11.756 3.36278C11.1229 2.72966 11.1229 1.70317 11.756 1.07005Z" fill="black"/>
</svg>